<?xml version="1.0" encoding="UTF-8" standalone="no"?>
<!-- Created with Inkscape (http://www.inkscape.org/) -->

<svg
   xmlns:dc="http://purl.org/dc/elements/1.1/"
   xmlns:cc="http://creativecommons.org/ns#"
   xmlns:rdf="http://www.w3.org/1999/02/22-rdf-syntax-ns#"
   xmlns:svg="http://www.w3.org/2000/svg"
   xmlns="http://www.w3.org/2000/svg"
   xmlns:xlink="http://www.w3.org/1999/xlink"
   xmlns:inkscape="http://www.inkscape.org/namespaces/inkscape"
   version="1.1"
   width="22"
   height="22"
   id="svg3014">
  <defs
     id="defs11">
    <linearGradient
       id="linearGradient3813">
      <stop
         id="stop3815"
         style="stop-color:#3c3c3c;stop-opacity:1"
         offset="0" />
      <stop
         id="stop3817"
         style="stop-color:#19b6ee;stop-opacity:1"
         offset="1" />
    </linearGradient>
    <linearGradient
       id="linearGradient4013">
      <stop
         id="stop4015"
         style="stop-color:#dfdbd2;stop-opacity:1"
         offset="0" />
      <stop
         id="stop4017"
         style="stop-color:#1ab5ee;stop-opacity:1"
         offset="1" />
    </linearGradient>
    <linearGradient
       x1="-13.196737"
       y1="6.9401946"
       x2="-3.1967373"
       y2="6.9401946"
       id="linearGradient4019"
       xlink:href="#linearGradient4013"
       gradientUnits="userSpaceOnUse" />
    <linearGradient
       x1="0.50345647"
       y1="26.650797"
       x2="10.503456"
       y2="26.650797"
       id="linearGradient3819"
       xlink:href="#linearGradient3813"
       gradientUnits="userSpaceOnUse" />
  </defs>
  <metadata
     id="metadata3019">
    <rdf:RDF>
      <cc:Work
         rdf:about="">
        <dc:format>image/svg+xml</dc:format>
        <dc:type
           rdf:resource="http://purl.org/dc/dcmitype/StillImage" />
        <dc:title />
      </cc:Work>
    </rdf:RDF>
  </metadata>
  <path
     d="m 7.5,8 9,0 C 16.776142,8 17,7.776142 17,7.5 17,7.223858 16.776142,7 16.5,7 l -9,0 C 7.223858,7 7,7.223858 7,7.5 7,7.776142 7.223858,8 7.5,8 z"
     inkscape:connector-curvature="0"
     id="path4071"
     style="color:#000000;fill:#19b6ee;fill-opacity:1;fill-rule:evenodd;stroke:none;stroke-width:1;marker:none;visibility:visible;display:inline;overflow:visible;enable-background:accumulate" />
  <g
     id="g3832"
     style="opacity:0.4">
    <path
       d="m 7.5,9 9,0 C 16.776142,9 17,8.776142 17,8.5 17,8.223858 16.776142,8 16.5,8 l -9,0 C 7.223858,8 7,8.223858 7,8.5 7,8.776142 7.223858,9 7.5,9 z"
       inkscape:connector-curvature="0"
       id="path3116"
       style="opacity:0.3;color:#000000;fill:#ffffff;fill-opacity:1;fill-rule:evenodd;stroke:none;stroke-width:1;marker:none;visibility:visible;display:inline;overflow:visible;enable-background:accumulate" />
    <path
       d="M 17,16.5 C 17,16.223858 16.776142,16 16.5,16 l -9,0 C 7.223858,16 7,16.223858 7,16.5 l 0,1 C 7,17.776142 7.223858,18 7.5,18 l 9,0 c 0.276142,0 0.5,-0.223858 0.5,-0.5 z"
       inkscape:connector-curvature="0"
       id="path3071"
       style="opacity:0.3;color:#000000;fill:#ffffff;fill-opacity:1;fill-rule:evenodd;stroke:none;stroke-width:1;marker:none;visibility:visible;display:inline;overflow:visible;enable-background:accumulate" />
    <path
       d="M 17,13.5 C 17,13.223858 16.776142,13 16.5,13 l -9,0 C 7.223858,13 7,13.223858 7,13.5 l 0,1 C 7,14.776142 7.223858,15 7.5,15 l 9,0 c 0.276142,0 0.5,-0.223858 0.5,-0.5 z"
       inkscape:connector-curvature="0"
       id="path3075"
       style="opacity:0.3;color:#000000;fill:#ffffff;fill-opacity:1;fill-rule:evenodd;stroke:none;stroke-width:1;marker:none;visibility:visible;display:inline;overflow:visible;enable-background:accumulate" />
    <path
       d="M 17,10.5 C 17,10.223858 16.776142,10 16.5,10 l -9,0 C 7.223858,10 7,10.223858 7,10.5 l 0,1 C 7,11.776142 7.223858,12 7.5,12 l 9,0 c 0.276142,0 0.5,-0.223858 0.5,-0.5 z"
       inkscape:connector-curvature="0"
       id="path3179"
       style="opacity:0.3;color:#000000;fill:#ffffff;fill-opacity:1;fill-rule:evenodd;stroke:none;stroke-width:1;marker:none;visibility:visible;display:inline;overflow:visible;enable-background:accumulate" />
  </g>
  <path
     d="M 17,15.5 C 17,15.223858 16.776142,15 16.5,15 l -9,0 C 7.223858,15 7,15.223858 7,15.5 l 0,1 C 7,16.776142 7.223858,17 7.5,17 l 9,0 c 0.276142,0 0.5,-0.223858 0.5,-0.5 z"
     inkscape:connector-curvature="0"
     id="path3073"
     style="opacity:0.4;color:#000000;fill:#3c3c3c;fill-opacity:1;fill-rule:evenodd;stroke:none;stroke-width:1;marker:none;visibility:visible;display:inline;overflow:visible;enable-background:accumulate" />
  <path
     d="M 17,12.5 C 17,12.223858 16.776142,12 16.5,12 l -9,0 C 7.223858,12 7,12.223858 7,12.5 l 0,1 C 7,13.776142 7.223858,14 7.5,14 l 9,0 c 0.276142,0 0.5,-0.223858 0.5,-0.5 z"
     inkscape:connector-curvature="0"
     id="path3077"
     style="opacity:0.6;color:#000000;fill:#2f687c;fill-opacity:1;fill-rule:evenodd;stroke:none;stroke-width:1;marker:none;visibility:visible;display:inline;overflow:visible;enable-background:accumulate" />
  <path
     d="M 17,9.5 C 17,9.223858 16.776142,9 16.5,9 l -9,0 C 7.223858,9 7,9.223858 7,9.5 l 0,1 C 7,10.776142 7.223858,11 7.5,11 l 9,0 c 0.276142,0 0.5,-0.223858 0.5,-0.5 z"
     inkscape:connector-curvature="0"
     id="path3181"
     style="opacity:0.7;color:#000000;fill:#2199c4;fill-opacity:1;fill-rule:evenodd;stroke:none;stroke-width:1;marker:none;visibility:visible;display:inline;overflow:visible;enable-background:accumulate" />
  <path
     d="m 3.9999999,20 c -0.552285,0 -1,-0.447715 -1,-1 l 0,-1 c 0,-0.552285 0.447715,-1 1,-1 l 1,0 0,-1 -1,0 c -0.552285,0 -1,-0.447715 -1,-1 l 0,-1 c 0,-0.552285 0.447715,-1 1,-1 l 1,0 0,-1 -1,0 c -0.552285,0 -1,-0.447715 -1,-1 l 0,-1 c 0,-0.552285 0.447715,-1 1,-1 l 1,0 0,-1 c 0,-1.103895 0.896105,-2 2,-2 l 1,0 0,-1 C 7.9999999,4.4477152 8.447715,4 9,4 l 1,0 c 0.552285,0 1,0.447715 1,1 l 0,1 1,0 0,-1 c 0,-0.5522848 0.447715,-1 1,-1 l 1,0 c 0.552285,0 1,0.447715 1,1 l 0,1 1,0 0,-1 c 0,-0.5522848 0.447715,-1 1,-1 l 1,0 c 0.552285,0 1,0.447715 1,1 l 0,13 c 0,1.103895 -0.896105,2 -2,2 z m 0,-1 0,-1 1.5,0 c 0.276142,0 0.5,-0.223858 0.5,-0.5 l 0,-2 c 0,-0.276142 -0.223858,-0.5 -0.5,-0.5 l -1.5,0 0,-1 1.5,0 c 0.276142,0 0.5,-0.223858 0.5,-0.5 l 0,-2 c 0,-0.276143 -0.223858,-0.5 -0.5,-0.5 l -1.5,0 0,-1 1.5,0 c 0.276142,0 0.5,-0.2238576 0.5,-0.5 l 0,-1.5 c 0,-0.589509 0.410491,-1 1,-1 L 8.5,7 C 8.776142,7 9,6.7761424 9,6.5 L 9,5 10,5 10,6.5 C 10,6.7761424 10.223858,7 10.5,7 l 2,0 C 12.776142,7 13,6.7761424 13,6.5 L 13,5 14,5 14,6.5 C 14,6.7761424 14.223858,7 14.5,7 l 2,0 C 16.776142,7 17,6.7761424 17,6.5 l 0,-1.5 1,0 0,13 c 0,0.589509 -0.410491,1 -1,1 z"
     inkscape:connector-curvature="0"
     id="path2986"
     style="opacity:0.3;color:#000000;fill:#ffffff;fill-opacity:1;fill-rule:evenodd;stroke:none;stroke-width:1;marker:none;visibility:visible;display:inline;overflow:visible;enable-background:accumulate" />
  <path
     d="m 3.9999999,19 c -0.552285,0 -1,-0.447715 -1,-1 l 0,-1 c 0,-0.552285 0.447715,-1 1,-1 l 1,0 0,-1 -1,0 c -0.552285,0 -1,-0.447715 -1,-1 l 0,-1 c 0,-0.552285 0.447715,-1 1,-1 l 1,0 0,-1 -1,0 c -0.552285,0 -1,-0.447715 -1,-1.0000001 L 2.9999999,9 c 0,-0.552285 0.447715,-1 1,-1 l 1,0 0,-1 c 0,-1.103895 0.896105,-2 2,-2 l 1,0 0,-1 C 7.9999999,3.4477152 8.447715,3 9,3 l 1,0 c 0.552285,0 1,0.447715 1,1 l 0,1 1,0 0,-1 c 0,-0.5522848 0.447715,-1 1,-1 l 1,0 c 0.552285,0 1,0.447715 1,1 l 0,1 1,0 0,-1 c 0,-0.5522848 0.447715,-1 1,-1 l 1,0 c 0.552285,0 1,0.447715 1,1 l 0,13 c 0,1.103895 -0.896105,2 -2,2 z m 0,-1 0,-1 1.5,0 c 0.276142,0 0.5,-0.223858 0.5,-0.5 l 0,-2 c 0,-0.276142 -0.223858,-0.5 -0.5,-0.5 l -1.5,0 0,-1 1.5,0 c 0.276142,0 0.5,-0.223858 0.5,-0.5 l 0,-2 c 0,-0.276143 -0.223858,-0.5 -0.5,-0.5 l -1.5,0 0,-1 1.5,0 c 0.276142,0 0.5,-0.2238576 0.5,-0.5 l 0,-1.5 c 0,-0.589509 0.410491,-1 1,-1 L 8.5,6 C 8.776142,6 9,5.7761424 9,5.5 L 9,4 10,4 10,5.5 C 10,5.7761424 10.223858,6 10.5,6 l 2,0 C 12.776142,6 13,5.7761424 13,5.5 L 13,4 14,4 14,5.5 C 14,5.7761424 14.223858,6 14.5,6 l 2,0 C 16.776142,6 17,5.7761424 17,5.5 l 0,-1.5 1,0 0,13 c 0,0.589509 -0.410491,1 -1,1 z"
     inkscape:connector-curvature="0"
     id="path3018"
     style="color:#000000;fill:#3c3c3c;fill-opacity:1;fill-rule:evenodd;stroke:none;marker:none;visibility:visible;display:inline;overflow:visible;enable-background:accumulate" />
  <path
     d="m 8.9999999,4.0000001 0,1.5 c 0,0.2761424 -0.223858,0.5 -0.5,0.5 l -1.5,0 c -0.589509,0 -1,0.410491 -1,1 l 0,1.5 c 0,0.2761424 -0.223858,0.5 -0.5,0.5 l -1.5,0 0,0.9999999 1.5,0 c 0.276142,0 0.5,0.223857 0.5,0.5 l 0,2 c 0,0.276142 -0.223858,0.5 -0.5,0.5 l -1.5,0 0,1 1.5,0 c 0.276142,0 0.5,0.223858 0.5,0.5 l 0,2 c 0,0.276142 -0.223858,0.5 -0.5,0.5 l -1.5,0 0,1 L 17,18 c 0.589509,0 1,-0.410491 1,-1 l 0,-12.9999999 -1,0 0,1.5 c 0,0.2761424 -0.223858,0.5 -0.5,0.5 l -2,0 c -0.276142,0 -0.5,-0.2238576 -0.5,-0.5 l 0,-1.5 -1,0 0,1.5 c 0,0.2761424 -0.223858,0.5 -0.5,0.5 l -2,0 c -0.276142,0 -0.5000001,-0.2238576 -0.5000001,-0.5 l 0,-1.5 -1,0 z m -1.9375,2.5 9.8750001,0 c 0.303756,0 0.5625,0.2587434 0.5625,0.5625 l 0,9.8749999 c 0,0.303756 -0.258744,0.5625 -0.5625,0.5625 l -9.8750001,0 c -0.3037562,0 -0.5625,-0.258744 -0.5625,-0.5625 l 0,-9.8749999 c 0,-0.3037566 0.2587438,-0.5625 0.5625,-0.5625 z"
     inkscape:connector-curvature="0"
     id="rect2986"
     style="opacity:0.3;color:#000000;fill:#3c3c3c;fill-opacity:1;fill-rule:evenodd;stroke:none;stroke-width:0.5;marker:none;visibility:visible;display:inline;overflow:visible;enable-background:accumulate" />
</svg>
